<?xml version="1.0" standalone="no"?>
<!DOCTYPE svg PUBLIC "-//W3C//DTD SVG 20010904//EN"
 "http://www.w3.org/TR/2001/REC-SVG-20010904/DTD/svg10.dtd">
<svg version="1.0" xmlns="http://www.w3.org/2000/svg"
 width="192.000000pt" height="192.000000pt" viewBox="0 0 192.000000 192.000000"
 preserveAspectRatio="xMidYMid meet" fill="#ffffff">
<metadata>
Created by potrace 1.10, written by Peter Selinger 2001-2011
</metadata>
<g transform="translate(0.000000,192.000000) scale(0.100000,-0.100000)"
fill="#000000" stroke="none">
<path d="M115 1901 c-48 -22 -79 -54 -100 -103 -13 -33 -15 -138 -15 -840 0
-759 1 -805 19 -843 22 -48 54 -79 103 -100 33 -13 138 -15 840 -15 759 0 805
1 843 19 48 22 79 54 100 103 13 33 15 138 15 838 0 700 -2 805 -15 838 -21
49 -52 81 -100 103 -38 18 -83 19 -845 19 -762 0 -807 -1 -845 -19z m1022
-444 c51 -27 63 -61 63 -182 l0 -106 -72 3 -73 3 -3 85 c-2 52 -8 87 -15 92
-19 12 -142 9 -155 -4 -14 -14 -17 -754 -3 -776 5 -9 30 -12 87 -10 l79 3 3
148 3 147 -41 0 -40 0 0 55 0 55 115 0 115 0 0 -219 c0 -211 -1 -219 -23 -252
-32 -47 -71 -58 -217 -58 -103 -1 -133 3 -168 19 -72 33 -72 31 -72 501 0 359
2 415 16 445 29 62 71 74 239 71 101 -2 137 -6 162 -20z"/>
</g>
</svg>
